<svg width="195" height="194" viewBox="0 0 195 194" fill="none" xmlns="http://www.w3.org/2000/svg">
<path d="M130.054 128.178C150.805 95.7845 148.196 99.8259 148.794 98.9813C156.349 88.3803 160.342 75.9033 160.342 62.8984C160.342 28.4104 132.211 0 97.5 0C62.902 0 34.6582 28.3543 34.6582 62.8984C34.6582 75.8949 38.7349 88.6985 46.5372 99.4424L64.9449 128.179C45.264 131.188 11.8066 140.154 11.8066 159.898C11.8066 167.096 16.5285 177.353 39.0236 185.345C54.731 190.926 75.4981 194 97.5 194C138.642 194 183.193 182.454 183.193 159.898C183.193 140.151 149.775 131.194 130.054 128.178ZM56.0812 93.1901C56.0183 93.0923 55.9528 92.9969 55.8843 92.9029C49.3917 84.0168 46.084 73.4855 46.084 62.8984C46.084 34.4736 69.0902 11.3672 97.5 11.3672C125.851 11.3672 148.916 34.4839 148.916 62.8984C148.916 73.5025 145.671 83.6765 139.529 92.3285C138.979 93.0507 141.85 88.6129 97.5 157.848L56.0812 93.1901ZM97.5 182.633C52.5609 182.633 23.2324 169.491 23.2324 159.898C23.2324 153.451 38.3023 142.85 71.696 138.717L92.6821 171.479C93.731 173.116 95.5477 174.107 97.4996 174.107C99.4515 174.107 101.269 173.116 102.317 171.479L123.303 138.717C156.697 142.85 171.768 153.451 171.768 159.898C171.768 169.41 142.703 182.633 97.5 182.633Z" fill="black"/>
<path d="M97.5 34.4805C81.7496 34.4805 68.9355 47.2288 68.9355 62.8984C68.9355 78.5681 81.7496 91.3164 97.5 91.3164C113.25 91.3164 126.064 78.5681 126.064 62.8984C126.064 47.2288 113.25 34.4805 97.5 34.4805ZM97.5 79.9492C88.0497 79.9492 80.3613 72.3002 80.3613 62.8984C80.3613 53.4966 88.0497 45.8477 97.5 45.8477C106.95 45.8477 114.639 53.4966 114.639 62.8984C114.639 72.3002 106.95 79.9492 97.5 79.9492Z" fill="black"/>
</svg>
